<?xml version="1.0" encoding="UTF-8" standalone="no"?>
<svg
   xmlns:dc="http://purl.org/dc/elements/1.1/"
   xmlns:cc="http://creativecommons.org/ns#"
   xmlns:rdf="http://www.w3.org/1999/02/22-rdf-syntax-ns#"
   xmlns:svg="http://www.w3.org/2000/svg"
   xmlns="http://www.w3.org/2000/svg"
   id="svg8"
   version="1.1"
   viewBox="0 0 210 297"
   height="297mm"
   width="210mm">
  <defs
     id="defs2" />
  <metadata
     id="metadata5">
    <rdf:RDF>
      <cc:Work
         rdf:about="">
        <dc:format>image/svg+xml</dc:format>
        <dc:type
           rdf:resource="http://purl.org/dc/dcmitype/StillImage" />
        <dc:title></dc:title>
      </cc:Work>
    </rdf:RDF>
  </metadata>
  <g
     id="layer1">
    <g
       transform="translate(71.815476)"
       id="g953">
      <g
         style="display:inline"
         transform="translate(-5.4882429,-47.504523)"
         id="g1335">
        <path
           id="path1329"
           d="m 7.5362744,230.09174 82.0517546,-0.80181 c 0,0 -0.53454,8.01809 -3.74178,10.42351 -3.20723,2.40543 -6.68174,2.93997 -10.15624,3.20724 -3.4745,0.26727 -64.679232,-2.13816 -64.679232,-2.13816 z"
           style="display:inline;fill:#ffffff;fill-opacity:1;stroke:#000000;stroke-width:0.26458332px;stroke-linecap:butt;stroke-linejoin:miter;stroke-opacity:1" />
        <path
           style="display:inline;fill:#e2ebf9;fill-opacity:1;stroke:none;stroke-width:0.26458332px;stroke-linecap:butt;stroke-linejoin:miter;stroke-opacity:1"
           d="m 89.588029,229.28993 -7.61556,0.0744 c -0.0889,1.07726 -0.76633,7.98788 -3.72328,10.20558 -3.20723,2.40543 -6.68199,2.93977 -10.15649,3.20704 -0.12664,0.01 -0.35102,0.0152 -0.62528,0.0181 4.41361,0.12158 7.52278,0.17941 8.22275,0.12557 3.4745,-0.26728 6.94874,-0.80161 10.15597,-3.20704 3.20724,-2.40542 3.74189,-10.42365 3.74189,-10.42365 z"
           id="path1331" />
        <path
           id="path1333"
           d="m 7.5362754,230.09174 82.0517536,-0.80181 c 0,0 -0.53454,8.01809 -3.74178,10.42351 -3.20723,2.40543 -6.68174,2.93997 -10.15624,3.20724 -3.4745,0.26727 -64.679231,-2.13816 -64.679231,-2.13816 z"
           style="display:inline;fill:none;fill-opacity:1;stroke:#000000;stroke-width:2.20000005;stroke-linecap:butt;stroke-linejoin:miter;stroke-miterlimit:4;stroke-dasharray:none;stroke-opacity:1" />
      </g>
      <path
         style="display:inline;fill:#43ff8a;fill-opacity:1;stroke:#000000;stroke-width:0.26435766;stroke-linecap:butt;stroke-linejoin:miter;stroke-miterlimit:4;stroke-dasharray:none;stroke-opacity:1"
         d="m 45.357142,102.72024 c -28.942107,-70.988671 66.249298,3.93116 0,0 z"
         id="path1337"
         transform="matrix(1.0360629,0,0,1.1061217,-80.522017,-27.587208)" />
      <path
         id="path1339"
         d="m -32.480798,52.304357 c -2.44623,0.0707 -4.47428,1.15086 -5.68337,3.57395 11.25813,1.12576 29.1777421,20.40004 19.98741,29.445727 22.9924511,-5.872896 -1.42564,-33.392067 -14.30404,-33.019677 z"
         style="display:inline;fill:#00d651;fill-opacity:1;stroke:none;stroke-width:0.28324157px;stroke-linecap:butt;stroke-linejoin:miter;stroke-opacity:1" />
      <path
         style="display:inline;fill:none;fill-opacity:1;stroke:#000000;stroke-width:2.05507731;stroke-linecap:butt;stroke-linejoin:miter;stroke-miterlimit:4;stroke-dasharray:none;stroke-opacity:1"
         d="m 45.357142,102.72024 c -27.838695,-69.950971 65.395008,2.98811 0,0 z"
         id="path1341"
         transform="matrix(1.0360629,0,0,1.1061217,-80.522017,-27.587208)" />
      <path
         transform="translate(-78.264984,-17.9733)"
         style="display:inline;fill:#43ff8a;fill-opacity:1;stroke:#000000;stroke-width:0.26458332px;stroke-linecap:butt;stroke-linejoin:miter;stroke-opacity:1"
         d="m 76.706353,181.80683 c 29.691867,-4.27341 62.321607,-23.11708 89.535287,-10.42351 27.13971,12.65907 7.51945,34.85077 -18.44159,28.59784 -22.59247,-5.44158 -70.878512,18.25271 -72.162775,-16.83798"
         id="path1345" />
      <path
         id="path1347"
         d="m 66.927375,149.00379 c -4.96321,0.0326 -10.021785,0.63663 -15.134485,1.58801 9.961865,-1.06784 19.631875,-0.34267 28.700065,3.88713 20.309455,9.47316 14.43239,24.28336 -0.69091,28.51814 20.366045,-0.61062 31.913205,-18.70776 8.42015,-29.66589 -6.80341,-3.1734 -13.94492,-4.37571 -21.29482,-4.32739 z"
         style="display:inline;fill:#00c048;fill-opacity:1;stroke:none;stroke-width:0.26458332px;stroke-linecap:butt;stroke-linejoin:miter;stroke-opacity:1" />
      <path
         transform="translate(-78.264984,-17.9733)"
         style="display:inline;fill:none;fill-opacity:1;stroke:#000000;stroke-width:2.20000005;stroke-linecap:butt;stroke-linejoin:miter;stroke-miterlimit:4;stroke-dasharray:none;stroke-opacity:1"
         d="m 76.706353,181.80683 c 29.691867,-4.27341 62.321607,-23.11708 89.535287,-10.42351 27.13971,12.65907 7.51945,34.85077 -18.44159,28.59784 -22.59247,-5.44158 -70.878512,18.25271 -72.162775,-16.83798"
         id="path1349" />
      <path
         transform="translate(-78.019268,-16.667481)"
         style="display:inline;fill:#16ff6e;fill-opacity:1;stroke:#000000;stroke-width:0.26458332px;stroke-linecap:butt;stroke-linejoin:miter;stroke-opacity:1"
         d="m 44.490102,102.70136 c 8.151213,21.69614 22.798195,44.36636 17.954225,67.16552 -5.155955,24.26758 29.399155,22.00649 27.589144,-3.8698 -1.522128,-21.76066 -4.345031,-45.32637 -17.336161,-63.30203 -6.272509,-8.679191 -23.906195,-11.998064 -28.207208,0.006 z"
         id="path1353" />
      <path
         id="path1355"
         d="m -21.556175,77.894629 c -2.82393,0.0408 -5.51402,0.754999 -7.68687,2.297541 5.56125,0.557959 11.26217,3.503954 14.29939,7.706514 12.9911401,17.975666 15.81429215,41.540896 17.3364211,63.301566 0.64189,9.17667 -3.29155895,15.38002 -8.403619,18.48671 8.50595,1.11926 19.2673789,-5.95363 18.2366099,-20.68969 C 10.703625,127.23661 7.8804761,103.67085 -5.1106529,85.695194 -8.5409339,80.94876 -15.369075,77.80533 -21.556175,77.894629 Z"
         style="display:inline;fill:#00c048;fill-opacity:1;stroke:none;stroke-width:0.26458332px;stroke-linecap:butt;stroke-linejoin:miter;stroke-opacity:1" />
      <path
         transform="translate(-78.019268,-16.667481)"
         style="display:inline;fill:none;fill-opacity:1;stroke:#000000;stroke-width:2.20000005;stroke-linecap:butt;stroke-linejoin:miter;stroke-miterlimit:4;stroke-dasharray:none;stroke-opacity:1"
         d="m 44.490102,102.70136 c 8.151213,21.69614 22.798195,44.36636 17.954225,67.16552 -5.155955,24.26758 29.399155,22.00649 27.589144,-3.8698 -1.522128,-21.76066 -4.345031,-45.32637 -17.336161,-63.30203 -6.272509,-8.679191 -23.906195,-11.998064 -28.207208,0.006 z"
         id="path1357" />
      <g
         style="display:inline"
         transform="translate(-129.87625,-48.455472)"
         id="g1367">
        <path
           id="path1361"
           d="m 112.41361,216.34283 6.68174,25.92515 16.30344,-0.53454 c 0,0 -2.13815,-19.24341 -5.87992,-23.787 -3.74178,-4.54358 -8.55263,-8.01808 -12.2944,-7.75081 -3.74178,0.26727 -4.81086,6.1472 -4.81086,6.1472 z"
           style="display:inline;fill:#c1c8d2;fill-opacity:1;stroke:#000000;stroke-width:0.26458332px;stroke-linecap:butt;stroke-linejoin:miter;stroke-opacity:1" />
        <path
           style="display:inline;fill:#aab2b9;fill-opacity:1;stroke:none;stroke-width:0.26458332px;stroke-linecap:butt;stroke-linejoin:miter;stroke-opacity:1"
           d="m 117.57817,210.18136 c -0.11895,10e-4 -0.23705,0.006 -0.35398,0.0145 -1.24946,0.0892 -2.19935,0.80525 -2.9125,1.71824 2.47587,1.39397 5.00954,3.66632 7.18303,6.30556 3.73629,4.53693 5.87246,23.72056 5.87872,23.77684 l 8.02535,-0.26303 c 0,0 -2.13849,-19.24307 -5.88026,-23.78666 -3.62485,-4.40159 -8.25282,-7.80031 -11.94036,-7.76542 z"
           id="path1363" />
        <path
           id="path1365"
           d="m 112.41361,216.34283 6.68174,25.92515 16.30344,-0.53454 c 0,0 -2.13815,-19.24341 -5.87992,-23.787 -3.74178,-4.54358 -8.55263,-8.01808 -12.2944,-7.75081 -3.74178,0.26727 -4.81086,6.1472 -4.81086,6.1472 z"
           style="display:inline;fill:none;fill-opacity:1;stroke:#000000;stroke-width:2.20000005;stroke-linecap:butt;stroke-linejoin:miter;stroke-miterlimit:4;stroke-dasharray:none;stroke-opacity:1" />
      </g>
    </g>
  </g>
</svg>
