<?xml version="1.0" encoding="UTF-8" standalone="no"?>
<svg
   xmlns:dc="http://purl.org/dc/elements/1.1/"
   xmlns:cc="http://creativecommons.org/ns#"
   xmlns:rdf="http://www.w3.org/1999/02/22-rdf-syntax-ns#"
   xmlns:svg="http://www.w3.org/2000/svg"
   xmlns="http://www.w3.org/2000/svg"
   id="svg8"
   version="1.1"
   viewBox="0 0 210 297"
   height="297mm"
   width="210mm">
  <defs
     id="defs2" />
  <metadata
     id="metadata5">
    <rdf:RDF>
      <cc:Work
         rdf:about="">
        <dc:format>image/svg+xml</dc:format>
        <dc:type
           rdf:resource="http://purl.org/dc/dcmitype/StillImage" />
        <dc:title></dc:title>
      </cc:Work>
    </rdf:RDF>
  </metadata>
  <g
     id="layer1">
    <g
       transform="translate(15.119047,12.85119)"
       id="g882">
      <g
         style="display:inline"
         transform="translate(51.208186,-60.355714)"
         id="g1284">
        <path
           id="path1278"
           d="m 7.5362744,230.09174 82.0517546,-0.80181 c 0,0 -0.53454,8.01809 -3.74178,10.42351 -3.20723,2.40543 -6.68174,2.93997 -10.15624,3.20724 -3.4745,0.26727 -64.679232,-2.13816 -64.679232,-2.13816 z"
           style="display:inline;fill:#ffffff;fill-opacity:1;stroke:#000000;stroke-width:0.26458332px;stroke-linecap:butt;stroke-linejoin:miter;stroke-opacity:1" />
        <path
           style="display:inline;fill:#e2ebf9;fill-opacity:1;stroke:none;stroke-width:0.26458332px;stroke-linecap:butt;stroke-linejoin:miter;stroke-opacity:1"
           d="m 89.588029,229.28993 -7.61556,0.0744 c -0.0889,1.07726 -0.76633,7.98788 -3.72328,10.20558 -3.20723,2.40543 -6.68199,2.93977 -10.15649,3.20704 -0.12664,0.01 -0.35102,0.0152 -0.62528,0.0181 4.41361,0.12158 7.52278,0.17941 8.22275,0.12557 3.4745,-0.26728 6.94874,-0.80161 10.15597,-3.20704 3.20724,-2.40542 3.74189,-10.42365 3.74189,-10.42365 z"
           id="path1280" />
        <path
           id="path1282"
           d="m 7.5362754,230.09174 82.0517536,-0.80181 c 0,0 -0.53454,8.01809 -3.74178,10.42351 -3.20723,2.40543 -6.68174,2.93997 -10.15624,3.20724 -3.4745,0.26727 -64.679231,-2.13816 -64.679231,-2.13816 z"
           style="display:inline;fill:none;fill-opacity:1;stroke:#000000;stroke-width:2.20000005;stroke-linecap:butt;stroke-linejoin:miter;stroke-miterlimit:4;stroke-dasharray:none;stroke-opacity:1" />
      </g>
      <path
         style="display:inline;fill:#436bff;fill-opacity:1;stroke:#000000;stroke-width:0.26435766;stroke-linecap:butt;stroke-linejoin:miter;stroke-miterlimit:4;stroke-dasharray:none;stroke-opacity:1"
         d="m 45.357142,102.72024 c -28.942107,-70.988671 66.249298,3.93116 0,0 z"
         id="path1286"
         transform="matrix(1.0360629,0,0,1.1061217,-23.825588,-40.438399)" />
      <path
         id="path1288"
         d="m 24.215631,39.453166 c -2.446231,0.0707 -4.474281,1.15086 -5.683371,3.57395 11.258131,1.12576 29.177743,20.40004 19.987411,29.445727 22.992451,-5.872896 -1.42564,-33.392067 -14.30404,-33.019677 z"
         style="display:inline;fill:#1647ff;fill-opacity:1;stroke:none;stroke-width:0.28324157px;stroke-linecap:butt;stroke-linejoin:miter;stroke-opacity:1" />
      <path
         style="display:inline;fill:none;fill-opacity:1;stroke:#000000;stroke-width:2.05507731;stroke-linecap:butt;stroke-linejoin:miter;stroke-miterlimit:4;stroke-dasharray:none;stroke-opacity:1"
         d="m 45.357142,102.72024 c -27.838695,-69.950971 65.395008,2.98811 0,0 z"
         id="path1290"
         transform="matrix(1.0360629,0,0,1.1061217,-23.825588,-40.438399)" />
      <path
         transform="translate(-21.568555,-30.824491)"
         style="display:inline;fill:#4369ff;fill-opacity:1;stroke:#000000;stroke-width:0.26458332px;stroke-linecap:butt;stroke-linejoin:miter;stroke-opacity:1"
         d="m 76.706353,181.80683 c 29.691867,-4.27341 62.321607,-23.11708 89.535287,-10.42351 27.13971,12.65907 7.51945,34.85077 -18.44159,28.59784 -22.59247,-5.44158 -70.878512,18.25271 -72.162775,-16.83798"
         id="path1294" />
      <path
         id="path1296"
         d="m 123.6238,136.1526 c -4.96321,0.0326 -10.02178,0.63663 -15.13448,1.58801 9.96186,-1.06784 19.63187,-0.34267 28.70006,3.88713 20.30945,9.47316 14.43239,24.28336 -0.69091,28.51814 20.36604,-0.61062 31.9132,-18.70776 8.42015,-29.66589 -6.80341,-3.1734 -13.94492,-4.37571 -21.29482,-4.32739 z"
         style="display:inline;fill:#1647ff;fill-opacity:1;stroke:none;stroke-width:0.26458332px;stroke-linecap:butt;stroke-linejoin:miter;stroke-opacity:1" />
      <path
         transform="translate(-21.568555,-30.824491)"
         style="display:inline;fill:none;fill-opacity:1;stroke:#000000;stroke-width:2.20000005;stroke-linecap:butt;stroke-linejoin:miter;stroke-miterlimit:4;stroke-dasharray:none;stroke-opacity:1"
         d="m 76.706353,181.80683 c 29.691867,-4.27341 62.321607,-23.11708 89.535287,-10.42351 27.13971,12.65907 7.51945,34.85077 -18.44159,28.59784 -22.59247,-5.44158 -70.878512,18.25271 -72.162775,-16.83798"
         id="path1298" />
      <path
         transform="translate(-21.322839,-29.518672)"
         style="display:inline;fill:#3c66ff;fill-opacity:1;stroke:#000000;stroke-width:0.26458332px;stroke-linecap:butt;stroke-linejoin:miter;stroke-opacity:1"
         d="m 44.490102,102.70136 c 8.151213,21.69614 22.798195,44.36636 17.954225,67.16552 -5.155955,24.26758 29.399155,22.00649 27.589144,-3.8698 -1.522128,-21.76066 -4.345031,-45.32637 -17.336161,-63.30203 -6.272509,-8.679191 -23.906195,-11.998064 -28.207208,0.006 z"
         id="path1302" />
      <path
         id="path1304"
         d="m 35.140254,65.043438 c -2.82393,0.0408 -5.51402,0.754999 -7.68687,2.297541 5.56125,0.557959 11.26217,3.503954 14.29939,7.706514 12.99114,17.975662 15.814292,41.540897 17.336421,63.301567 0.64189,9.17667 -3.291559,15.38002 -8.403619,18.48671 8.50595,1.11926 19.267379,-5.95363 18.23661,-20.68969 C 67.400054,114.38542 64.576905,90.819662 51.585776,72.844003 48.155495,68.097569 41.327354,64.954139 35.140254,65.043438 Z"
         style="display:inline;fill:#002ccc;fill-opacity:1;stroke:none;stroke-width:0.26458332px;stroke-linecap:butt;stroke-linejoin:miter;stroke-opacity:1" />
      <path
         transform="translate(-21.322839,-29.518672)"
         style="display:inline;fill:none;fill-opacity:1;stroke:#000000;stroke-width:2.20000005;stroke-linecap:butt;stroke-linejoin:miter;stroke-miterlimit:4;stroke-dasharray:none;stroke-opacity:1"
         d="m 44.490102,102.70136 c 8.151213,21.69614 22.798195,44.36636 17.954225,67.16552 -5.155955,24.26758 29.399155,22.00649 27.589144,-3.8698 -1.522128,-21.76066 -4.345031,-45.32637 -17.336161,-63.30203 -6.272509,-8.679191 -23.906195,-11.998064 -28.207208,0.006 z"
         id="path1306" />
      <g
         style="display:inline"
         transform="translate(-73.179823,-61.306663)"
         id="g1316">
        <path
           id="path1310"
           d="m 112.41361,216.34283 6.68174,25.92515 16.30344,-0.53454 c 0,0 -2.13815,-19.24341 -5.87992,-23.787 -3.74178,-4.54358 -8.55263,-8.01808 -12.2944,-7.75081 -3.74178,0.26727 -4.81086,6.1472 -4.81086,6.1472 z"
           style="display:inline;fill:#c1c8d2;fill-opacity:1;stroke:#000000;stroke-width:0.26458332px;stroke-linecap:butt;stroke-linejoin:miter;stroke-opacity:1" />
        <path
           style="display:inline;fill:#aab2b9;fill-opacity:1;stroke:none;stroke-width:0.26458332px;stroke-linecap:butt;stroke-linejoin:miter;stroke-opacity:1"
           d="m 117.57817,210.18136 c -0.11895,10e-4 -0.23705,0.006 -0.35398,0.0145 -1.24946,0.0892 -2.19935,0.80525 -2.9125,1.71824 2.47587,1.39397 5.00954,3.66632 7.18303,6.30556 3.73629,4.53693 5.87246,23.72056 5.87872,23.77684 l 8.02535,-0.26303 c 0,0 -2.13849,-19.24307 -5.88026,-23.78666 -3.62485,-4.40159 -8.25282,-7.80031 -11.94036,-7.76542 z"
           id="path1312" />
        <path
           id="path1314"
           d="m 112.41361,216.34283 6.68174,25.92515 16.30344,-0.53454 c 0,0 -2.13815,-19.24341 -5.87992,-23.787 -3.74178,-4.54358 -8.55263,-8.01808 -12.2944,-7.75081 -3.74178,0.26727 -4.81086,6.1472 -4.81086,6.1472 z"
           style="display:inline;fill:none;fill-opacity:1;stroke:#000000;stroke-width:2.20000005;stroke-linecap:butt;stroke-linejoin:miter;stroke-miterlimit:4;stroke-dasharray:none;stroke-opacity:1" />
      </g>
    </g>
  </g>
</svg>
